PathFileType	4	(X/Y/Z)	C:/Users/opensim2020/Desktop/walking_exp_matlab/subject02_walking08_straight_04.trc																																																																																																																									
DataRate	CameraRate	NumFrames	NumMarkers	Units	OrigDataRate	OrigDataStartFrame	OrigNumFrames																																																																																																																					
100	100	5	41	mm	100	3077	241																																																																																																																					
Frame#	Time	LFHD			RFHD			LBHD			RBHD			C7			T10			CLAV			STRN			RBAK			LSHO			LUPA			LELB			LFRM			LWRA			LWRB			LFIN			RSHO			RUPA			RELB			RFRM			RWRA			RWRB			RFIN			LASI			RASI			LPSI			RPSI			LTHI			LKNE			LTIB			LANK			LHEE			LTOE			RTHI			RKNE			RTIB			RANK			RHEE			RTOE			*39			*40		
		X1	Y1	Z1	X2	Y2	Z2	X3	Y3	Z3	X4	Y4	Z4	X5	Y5	Z5	X6	Y6	Z6	X7	Y7	Z7	X8	Y8	Z8	X9	Y9	Z9	X10	Y10	Z10	X11	Y11	Z11	X12	Y12	Z12	X13	Y13	Z13	X14	Y14	Z14	X15	Y15	Z15	X16	Y16	Z16	X17	Y17	Z17	X18	Y18	Z18	X19	Y19	Z19	X20	Y20	Z20	X21	Y21	Z21	X22	Y22	Z22	X23	Y23	Z23	X24	Y24	Z24	X25	Y25	Z25	X26	Y26	Z26	X27	Y27	Z27	X28	Y28	Z28	X29	Y29	Z29	X30	Y30	Z30	X31	Y31	Z31	X32	Y32	Z32	X33	Y33	Z33	X34	Y34	Z34	X35	Y35	Z35	X36	Y36	Z36	X37	Y37	Z37	X38	Y38	Z38	X39	Y39	Z39	X40	Y40	Z40	X41	Y41	Z41
																																																																																																																												
91	0.9	-166.52095	1708.06311	-1512.85303	-186.87427	1690.64368	-1371.20007	-303.59766	1650.87451	-1537.91382	-336.35507	1634.00366	-1398.41431	-379.80151	1508.31409	-1453.04614	-432.3616	1228.72205	-1439.75171	-242.70204	1434.98877	-1471.90112	-190.15753	1266.17126	-1452.51392	-435.73047	1334.32605	-1378.67395	-331.13019	1470.31409	-1634.73792	-393.73001	1278.70239	-1704.32458	-430.4628	1143.74426	-1709.66479	-462.53394	1017.89661	-1729.76428	-436.5853	879.81775	-1730.8656	-489.49365	897.8277	-1739.93506	-492.02234	831.6629	-1752.47717	-290.92697	1479.90771	-1271.24609	-281.82776	1287.854	-1181.43896	-233.12755	1146.72815	-1163.99878	-160.31335	1048.448	-1160.13879	-70.66196	954.24854	-1196.52161	-106.67716	929.98578	-1160.05615	-45.86641	890.79034	-1166.29004	-175.18727	981.29187	-1566.57678	-199.72647	952.45746	-1307.76697	-396.09366	1011.64215	-1503.89624	-409.24225	1005.78369	-1392.01367	-179.12125	681.33966	-1640.73047	-156.25356	479.92236	-1610.57947	-167.38606	285.10001	-1617.21387	-121.47462	68.54862	-1584.40796	-152.25468	40.07509	-1532.61877	36.19692	37.98136	-1591.51257	-351.48563	660.43567	-1254.00977	-406.63428	459.44748	-1284.98621	-534.84381	318.1716	-1287.99194	-639.79614	155.8596	-1325.04028	-688.55621	122.54362	-1385.37708	-528.12048	37.53567	-1310.54712	-269.37939	1787.172	-1435.40381	NaN	NaN	NaN
92	0.91	-156.90079	1708.72974	-1514.28833	-178.02762	1691.13208	-1372.72522	-294.09259	1651.94983	-1540.29932	-327.85147	1634.8656	-1400.92297	-370.60156	1509.23914	-1455.40588	-421.93652	1228.81445	-1442.01794	-233.44591	1436.10388	-1474.0238	-180.15025	1267.63782	-1454.8949	-426.05383	1334.16064	-1381.14294	-321.49173	1471.00769	-1637.28101	-382.01257	1278.63	-1707.19739	-417.47699	1143.37866	-1712.90283	-448.37106	1017.37177	-1733.40808	-421.19073	879.55731	-1734.78381	-474.08609	897.06036	-1744.0741	-476.16205	831.14313	-1756.78955	-282.14825	1480.19495	-1272.91919	-274.02594	1287.60486	-1184.02393	-225.93217	1146.20203	-1167.39209	-154.05609	1047.29004	-1162.98694	-65.61331	952.21753	-1199.1051	-101.7449	928.17755	-1162.33704	-41.81704	888.58405	-1168.78687	-164.31792	982.76385	-1569.95605	-187.8354	952.72791	-1311.61389	-385.14966	1013.58868	-1506.63037	-397.10617	1006.37463	-1394.10303	-168.07172	682.51508	-1641.69055	-144.99712	480.85974	-1611.36682	-160.05959	286.30991	-1618.71948	-119.31163	68.83386	-1584.59204	-151.80151	40.69636	-1532.68469	37.68047	36.73421	-1590.69812	-338.68872	661.17853	-1255.7926	-392.32059	460.00513	-1283.51196	-523.76691	322.16962	-1287.04907	-632.63312	162.59035	-1324.06201	-681.44965	131.41287	-1384.91699	-527.14569	37.88468	-1310.48804	-260.04141	1788.04944	-1437.34473	-2845.88525	1033.9115	3356.9707
93	0.92	-147.43954	1709.5343	-1515.92932	-169.21634	1691.81372	-1374.26099	-284.35233	1652.88428	-1542.2583	-319.06628	1635.94568	-1403.21216	-361.45865	1510.07141	-1457.5177	-411.64258	1229.03101	-1444.11658	-224.18219	1437.3761	-1476.10681	-170.12411	1269.17407	-1457.30078	-416.85324	1334.36743	-1384.02539	-311.92093	1472.04895	-1639.52307	-370.48825	1279.10217	-1710.26953	-404.26056	1143.43994	-1716.11047	-433.79706	1017.26056	-1737.05554	-405.30069	879.66943	-1738.58447	-458.39749	896.9491	-1748.28015	-459.8251	831.03851	-1761.31604	-273.41992	1481.0979	-1275.02466	-267.12079	1287.62927	-1187.05664	-219.12875	1146.36731	-1170.21497	-148.2383	1046.44165	-1165.63428	-61.29446	950.10919	-1201.62915	-97.81049	926.78131	-1165.07727	-38.18476	886.33069	-1170.77686	-153.64604	984.78894	-1573.34009	-176.05922	953.52924	-1315.823	-375.05432	1015.52454	-1509.23376	-385.05652	1007.41248	-1395.84253	-156.36205	683.48389	-1643.30774	-135.18814	481.33228	-1612.36438	-153.51459	287.26895	-1619.23132	-118.52059	69.15796	-1584.50366	-151.55624	40.58951	-1532.82336	38.57063	35.75937	-1590.81409	-325.46106	661.76361	-1257.67773	-376.70303	460.3154	-1281.93201	-511.26285	325.92688	-1285.78052	-624.07971	169.33641	-1323.06628	-672.78082	140.5994	-1384.82129	-525.87402	37.95486	-1310.67749	-250.59735	1788.84839	-1439.19495	-2845.27002	1033.94592	3360.35132
94	0.93	-137.89941	1710.20081	-1517.3595	-160.42035	1692.60046	-1375.76807	-274.99973	1653.98999	-1544.54675	-310.19055	1637.08691	-1405.38721	-352.51447	1510.81873	-1459.48523	-401.56021	1229.36951	-1446.32214	-215.06657	1438.61658	-1478.02271	-160.1942	1270.71228	-1459.68298	-407.17221	1334.53638	-1386.16199	-302.32117	1473.2865	-1641.41467	-358.74973	1279.73523	-1713.0498	-390.77979	1143.83398	-1719.32312	-418.8569	1017.47986	-1740.73669	-388.87006	880.20813	-1742.50854	-441.92749	896.80792	-1752.41687	-442.84961	831.06482	-1765.69531	-264.74039	1482.00146	-1276.89087	-260.43115	1288.3949	-1190.51306	-212.3448	1146.86011	-1173.32544	-143.02956	1046.01538	-1168.48376	-56.69473	948.44324	-1203.80029	-93.9544	925.45465	-1167.62756	-35.1287	884.38757	-1173.03479	-143.06929	987.30688	-1576.58374	-164.60846	954.60431	-1320.06982	-363.57498	1016.7041	-1511.62915	-373.38647	1008.52954	-1397.37561	-144.76999	683.77527	-1645.13904	-126.49808	481.47925	-1613.5105	-148.0752	287.90186	-1619.80273	-117.5638	69.00723	-1584.00159	-151.53493	40.97638	-1532.93286	39.4244	35.0755	-1590.50623	-311.93338	662.00909	-1259.47729	-360.0336	460.43994	-1279.98132	-497.5856	329.33661	-1284.31909	-614.17004	176.10036	-1322.14819	-662.75537	150.15126	-1384.79553	-524.20233	38.0176	-1311.16858	-241.25	1789.86414	-1441.15955	-2845.25024	1034.05127	3360.31274
95	0.94	-128.44569	1710.89624	-1518.76135	-151.64442	1693.45044	-1377.1748	-265.41278	1654.9231	-1546.25671	-301.33716	1638.34192	-1407.39673	-343.72336	1511.51343	-1461.42188	-391.75443	1229.86987	-1448.52368	-205.86562	1439.97339	-1479.97021	-150.22034	1272.28162	-1462.06641	-397.6828	1334.97998	-1388.38953	-293.14795	1474.8894	-1643.48059	-347.04678	1280.54089	-1715.74585	-377.12872	1144.37512	-1722.53394	-403.45355	1017.87079	-1744.48267	-371.91513	880.68378	-1746.08276	-425.12769	896.94257	-1756.47205	-425.21649	831.12097	-1769.90308	-256.11124	1483.1427	-1278.91028	-252.73749	1289.38733	-1193.22498	-205.75505	1147.57532	-1176.43567	-137.79974	1045.84424	-1171.39954	-53.24929	946.35028	-1206.0708	-90.67403	924.53479	-1169.57959	-32.46358	882.3822	-1174.97156	-132.80263	989.98053	-1579.6012	-153.12946	955.8396	-1324.55225	-352.81268	1017.69464	-1513.90198	-362.2247	1009.62018	-1398.99377	-133.52902	683.85162	-1646.94836	-119.10219	481.51886	-1614.81775	-144.43762	288.00766	-1619.75403	-116.97823	68.99107	-1583.70947	-151.02171	40.79441	-1532.50562	40.14802	34.50653	-1590.29736	-297.96213	662.02386	-1261.12402	-342.58484	460.26193	-1277.96509	-482.9704	332.52151	-1282.7179	-603.19031	182.95668	-1321.61108	-651.40948	159.79738	-1384.56873	-522.20508	38.2147	-1312.01843	-231.91714	1790.89624	-1443.09119	-2845.17822	1034.03613	3360.26147
